<svg xmlns="http://www.w3.org/2000/svg" width="308" height="331" fill="none" viewBox="0 0 308 331">
  <path fill="#7F7E7F" fill-rule="evenodd" d="M139.914.439c0 .206 1.107 2.878 2.46 5.937 6.778 15.328 5.719 42.789-2.517 65.22-1.204 3.283-2.472 6.266-2.816 6.63-.345.366-3.552.912-7.127 1.215-3.575.303-9.65.904-13.5 1.336-3.85.432-13.075.786-20.5.786-11.59 0-14.278-.312-19-2.206-9.336-3.743-15.899-4.44-25.709-2.73-14.842 2.589-24.66 9.448-29.898 20.889-3.919 8.56-4.558 14.392-3.732 34.047 1.08 25.706.895 39.383-.596 44-.71 2.2-3.274 9.53-5.698 16.289-3.698 10.312-5.889 17.864-10.07 34.711-.273 1.1-.73 9.881-1.015 19.513-.423 14.266-.213 18.708 1.131 23.954 2.272 8.87 5.13 14.202 10.507 19.612 7.201 7.243 15.096 10.74 27.08 11.993 17.451 1.824 19.823 2.29 23.584 4.626 4.136 2.569 21.18 10.098 25.416 11.227 1.375.367 4.975 1.358 8 2.203 3.025.845 6.625 1.745 8 2 1.375.254 3.625.669 5 .921 4.782.875 18.907 2.192 31.954 2.978 4.823.291 9.392 1.125 10.64 1.942 1.202.788 4.414 1.728 7.137 2.09 4.639.615 4.945.519 4.86-1.524-.082-1.967.498-2.221 5.909-2.584 9.779-.656 26.791-2.318 29.75-2.905 1.512-.3 3.762-.73 5-.954 3.931-.712 18.171-4.603 20.25-5.533 1.1-.491 5.375-2.375 9.5-4.185 4.125-1.81 9.185-4.326 11.245-5.592 3.534-2.171 9.387-3.342 23.525-4.707 17.163-1.657 29.176-9.937 35.426-24.419l3.304-7.656-.027-20c-.021-15.744-.403-21.49-1.794-27-.972-3.85-2.268-9.025-2.882-11.5-.613-2.475-3.83-11.925-7.149-21l-6.035-16.5-.127-14c-.07-7.7.294-20.3.808-28 1.102-16.507.027-25.832-3.95-34.238-5.315-11.235-15.442-18.22-30.139-20.785-9.3-1.624-15.266-.957-26.666 2.978-6.069 2.094-9.226 2.545-17.832 2.545-13.578 0-17.027-.668-16.372-3.172.526-2.013-1.503-15.285-3.118-20.386-2.705-8.55-7.165-12.66-7.262-6.692-.029 1.804-.851.26-2.389-4.49-2.768-8.546-7.607-16.502-10.968-18.033-1.319-.601-2.595-.897-2.835-.657-.24.24-.305 6.398-.146 13.683.283 12.89-.342 12.652-1.973-.753-2.056-16.896-11.004-36.05-18.701-40.03-2.542-1.314-7.943-2.06-7.943-1.094Z" clip-rule="evenodd"/>
  <path fill="#39B54A" fill-rule="evenodd" d="M139.914.439c0 .206 1.107 2.878 2.46 5.937 6.778 15.328 5.719 42.789-2.517 65.22-1.204 3.283-2.472 6.266-2.816 6.63-.345.366-3.552.912-7.127 1.215-3.575.303-9.65.904-13.5 1.336-3.85.432-13.075.786-20.5.786-11.59 0-14.278-.312-19-2.206-9.336-3.743-15.899-4.44-25.709-2.73-14.842 2.589-24.66 9.448-29.898 20.889-3.919 8.56-4.558 14.392-3.732 34.047 1.08 25.706.895 39.383-.596 44-.71 2.2-3.274 9.53-5.698 16.289-3.698 10.312-5.889 17.864-10.07 34.711-.273 1.1-.73 9.881-1.015 19.513-.423 14.266-.213 18.708 1.131 23.954 2.272 8.87 5.13 14.202 10.507 19.612 7.201 7.243 15.096 10.74 27.08 11.993 17.451 1.824 19.823 2.29 23.584 4.626 4.136 2.569 21.18 10.098 25.416 11.227 1.375.367 4.975 1.358 8 2.203 3.025.845 6.625 1.745 8 2 1.375.254 3.625.669 5 .921 4.782.875 18.907 2.192 31.954 2.978 4.823.291 9.392 1.125 10.64 1.942 1.202.788 4.414 1.728 7.137 2.09 4.639.615 4.945.519 4.86-1.524-.082-1.967.498-2.221 5.909-2.584 9.779-.656 26.791-2.318 29.75-2.905 1.512-.3 3.762-.73 5-.954 3.931-.712 18.171-4.603 20.25-5.533 1.1-.491 5.375-2.375 9.5-4.185 4.125-1.81 9.185-4.326 11.245-5.592 3.534-2.171 9.387-3.342 23.525-4.707 17.163-1.657 29.176-9.937 35.426-24.419l3.304-7.656-.027-20c-.021-15.744-.403-21.49-1.794-27-.972-3.85-2.268-9.025-2.882-11.5-.613-2.475-3.83-11.925-7.149-21l-6.035-16.5-.127-14c-.07-7.7.294-20.3.808-28 1.102-16.507.027-25.832-3.95-34.238-5.315-11.235-15.442-18.22-30.139-20.785-9.3-1.624-15.266-.957-26.666 2.978-6.069 2.094-9.226 2.545-17.832 2.545-13.578 0-17.027-.668-16.372-3.172.526-2.013-1.503-15.285-3.118-20.386-2.705-8.55-7.165-12.66-7.262-6.692-.029 1.804-.851.26-2.389-4.49-2.768-8.546-7.607-16.502-10.968-18.033-1.319-.601-2.595-.897-2.835-.657-.24.24-.305 6.398-.146 13.683.283 12.89-.342 12.652-1.973-.753-2.056-16.896-11.004-36.05-18.701-40.03-2.542-1.314-7.943-2.06-7.943-1.094Zm-68.36 160.413c-2.316 2.316-3.307.605-1.076-1.86 1.193-1.318 2.03-1.651 2.276-.908.216.647-.324 1.892-1.2 2.768Zm167.57.604c1.063 1.985 1.016 2.001-1.304.463-1.323-.877-2.57-2.427-2.771-3.444-.321-1.621-.16-1.678 1.304-.462.919.762 2.166 2.311 2.771 3.443Zm-160.21 5.952c0 .19-1.013 1.202-2.25 2.25l-2.25 1.905 1.905-2.25c1.79-2.114 2.595-2.705 2.595-1.905Z" clip-rule="evenodd"/>
  <path fill="#009245" fill-rule="evenodd" d="M139.914.439c0 .206 1.183 3.019 2.629 6.25 2.447 5.467 5.793 23.81 4.872 26.71-.203.64-.624 4.627-.936 8.859-.771 10.443-5.253 28.579-8.629 34.917-.773 1.452 1.297 1.668 20.853 2.175 11.941.31 22.661.784 23.823 1.054 1.161.27 4.266.623 6.9.785 6.154.379 6.819-1.174 5.047-11.785-1.396-8.361-1.721-9.478-4.672-16.091-2.18-4.884-4.863-5.7-4.932-1.5-.029 1.804-.851.26-2.389-4.49-2.508-7.743-7.678-16.705-10.195-17.671-3.931-1.51-4.06-1.051-3.585 12.66.462 13.34-.071 16.51-1.218 7.25-1.614-13.03-2.854-19.326-4.972-25.27C157.137 9.215 149.596.062 142.546.062c-1.448 0-2.632.17-2.632.377Zm-81.25 75.286c.688.278 1.813.278 2.5 0 .688-.277.125-.504-1.25-.504s-1.937.227-1.25.504Zm188 0c.688.278 1.813.278 2.5 0 .688-.277.125-.504-1.25-.504s-1.937.227-1.25.504ZM69.914 86.092c-1.262.847-1.023 1.415 1.5 3.573 1.65 1.412 6.231 5.454 10.18 8.982 3.948 3.529 7.874 6.416 8.723 6.416 3.697 0 6.708-13.05 3.483-15.091-.762-.483-2.736-.892-4.386-.908-2.8-.03-13.125-2.17-16.5-3.423-.825-.306-2.175-.104-3 .45Zm159 1.042c-3.575.986-8.155 1.823-10.179 1.86-5.237.098-7.114 2.323-6.29 7.455.787 4.898 2.944 8.614 5.001 8.614.817 0 4.108-2.362 7.313-5.25a898.129 898.129 0 0 1 10.212-9.054c3.537-3.068 4.101-3.985 2.914-4.735-.809-.512-1.696-.875-1.971-.806-.275.068-3.425.93-7 1.916Zm-99.368-.37c-.386.387-5.524.949-11.417 1.25-10.039.514-10.735.686-11.024 2.722-.453 3.18 3.082 9.438 7.68 13.592 3.553 3.209 4.368 3.527 7.069 2.752 7.419-2.128 13.06-8.37 13.06-14.452 0-5.211-2.878-8.354-5.368-5.863Zm17.165-.082c-.937.28-1.988 1.407-2.336 2.503-.942 2.969.476 11.731 2.774 17.141 3.352 7.894 8.385 7.369 14.868-1.549 6.77-9.314 7.461-14.163 2.322-16.31-3.727-1.557-14.68-2.666-17.628-1.785Zm27.425.559c-.672.672-1.222 3.294-1.222 5.826 0 3.903.495 5.067 3.25 7.649 8.629 8.084 12.71 8.471 18.615 1.763 4.688-5.326 6.905-10.783 5.211-12.824-.73-.88-4.577-1.503-11.34-1.838-5.63-.28-10.924-.797-11.764-1.152-.841-.355-2.078-.096-2.75.576Zm-73.78 17.479c-3.24 3.497-3.092 5.711 1.078 16.086 4.079 10.146 7.474 16.435 9.174 16.994 2.192.72 3.584-7.658 2.94-17.686-.537-8.369-.925-9.843-3.395-12.895-4.099-5.064-6.785-5.749-9.797-2.499Zm101.976-1.62c-3.143 1.169-7.256 6.584-7.996 10.527-.362 1.928-.471 7.763-.244 12.967.702 16.053 3.327 15.148 11.283-3.895 4.989-11.942 5.275-13.583 2.979-17.087-1.918-2.927-3.326-3.515-6.022-2.512Zm-147.559.998c-6.823 1.129-11.416 3.655-15.89 8.737-5.03 5.716-6.969 12.168-6.969 23.199 0 10.471 1.806 17.914 6.991 28.802 5.531 11.617 11.963 18.137 23.455 23.78 11.767 5.777 19.751 7.741 29.646 7.291 8.598-.39 11.621-1.903 15.658-7.834 3.864-5.677 2.419-17.774-4.614-38.617-4.744-14.063-10.9-24.952-18.98-33.57-9.318-9.937-18.4-13.592-29.297-11.788Zm187.288.029c-17.656 3.515-35.98 30.689-42.58 63.144-3.134 15.412-1.449 22.342 6.446 26.517 5.218 2.76 15.386 3.079 24.527.769 10.588-2.675 23.623-9.797 29.301-16.01 17.555-19.208 21.607-53.982 7.843-67.301-6.097-5.9-16.748-8.868-25.537-7.119Zm-104.447 4.612c-.373.603-3.603 2.129-7.179 3.392-7.531 2.658-8.212 3.841-6.471 11.24 2.302 9.786 7.91 17.692 12.548 17.692 3.495 0 4.715-5.843 3.829-18.338-.787-11.109-1.679-15.681-2.727-13.986Zm30.883 1.736c-1.085 4.004-1.7 24.111-.829 27.088 2.326 7.947 11.533.95 15.369-11.678 3.035-9.994 3.217-9.705-9.799-15.605-4.164-1.887-4.177-1.887-4.741.195Zm-16.436 13.129c-1.099 1.397-2.482 4.794-3.073 7.549-2.123 9.899-.839 14.91 3.82 14.91 3.553 0 6.438-4.057 8.073-11.352 2.35-10.486-3.507-17.862-8.82-11.107Zm137.932 3.042c.048 1.165.285 1.402.604.605.289-.722.253-1.585-.079-1.917-.332-.332-.568.258-.525 1.312Zm-219.35 5.021c-.332.332-1.195.368-1.916.079-.798-.319-.56-.556.604-.604 1.054-.043 1.644.193 1.312.525Zm-14.729 1.722c0 .179-1.237 1.416-2.75 2.75l-2.75 2.424 2.424-2.75c2.266-2.57 3.076-3.209 3.076-2.424Zm198.5 1.674c.995 1.1 1.585 2 1.31 2-.275 0-1.315-.9-2.31-2-.995-1.1-1.585-2-1.31-2 .275 0 1.315.9 2.31 2Zm-24.5.288c0 .158-2.363 2.52-5.25 5.25l-5.25 4.962 4.962-5.25c4.612-4.878 5.538-5.709 5.538-4.962Zm-142 9.42c0 .751-.898-.043-5.042-4.458l-4.458-4.75 4.75 4.458c2.612 2.452 4.75 4.59 4.75 4.75Zm28.973-3.524c-3.21 5.123-1.106 14.677 3.633 16.495 3.69 1.416 6.216-7.56 4.132-14.679-1.731-5.912-4.755-6.619-7.765-1.816Zm67.049-1.224c-2.011 3.757-2.31 10.415-.647 14.396 2.108 5.044 4.44 4.525 7.513-1.673 2.129-4.293 2.261-5.242 1.215-8.733-1.668-5.566-6.074-7.742-8.081-3.99Zm74.661 4.228c-.319.797-.556.56-.604-.605-.043-1.054.193-1.644.525-1.312.332.332.368 1.195.079 1.917Zm-167.653 4.868c1.52 2.839.483 2.376-1.519-.679-.945-1.443-1.224-2.318-.62-1.944.604.373 1.566 1.553 2.14 2.623Zm-42.323 3.182c-.239 1.244-.444.462-.455-1.738-.01-2.2.185-3.218.435-2.262s.26 2.756.02 4Zm210.986-.507c-.254.973-.478.419-.498-1.231-.02-1.65.187-2.446.461-1.769.274.677.291 2.027.037 3Zm-192.964-2.127c-.332.332-1.195.368-1.916.079-.798-.319-.56-.556.604-.604 1.054-.043 1.644.193 1.312.525Zm-7.729 1.896c-4.566 1.758-6.362 1.732-2.5-.036 1.65-.756 3.675-1.36 4.5-1.343.825.017-.075.638-2 1.379Zm15-1.107c0 .216-.698.661-1.552.989-.89.341-1.29.173-.94-.393.586-.951 2.492-1.406 2.492-.596Zm142 1.607c-.589 1.1-1.295 2-1.57 2-.275 0-.019-.9.57-2s1.295-2 1.57-2c.275 0 .019.9-.57 2Zm20-1c0 .55-.198 1-.441 1s-.719-.45-1.059-1c-.34-.55-.141-1 .441-1s1.059.45 1.059 1Zm14 .046c1.095.741.691.834-1.5.344-3.677-.823-4.475-1.395-1.917-1.375 1.054.009 2.592.472 3.417 1.031Zm-172 .347c0 .216-.698.661-1.552.989-.89.341-1.29.173-.94-.393.586-.951 2.492-1.406 2.492-.596Zm1.434 1.714c-.464.751.08.897 1.691.452 2.017-.556 2.11-.488.617.447-1.902 1.192-4.136.441-3.199-1.075.316-.512.8-.931 1.075-.931.275 0 .192.498-.184 1.107Zm54.278-.414c-.262.444-.779 2.382-1.148 4.307-.369 1.925-1.367 5.135-2.216 7.132-1.442 3.388-1.408 3.944.497 8.25 1.206 2.728 2.7 4.618 3.65 4.618 2.723 0 4.787-6.741 4.901-16 .104-8.486.1-8.501-2.552-8.807-1.46-.169-2.87.056-3.132.5Zm35.001-.072c-2.145 2.144.109 20.336 2.887 23.312 1.157 1.24 1.611 1.186 3.363-.4 2.733-2.473 4.358-8.441 2.808-10.309-.644-.775-1.676-3.955-2.294-7.067-.973-4.898-1.454-5.697-3.588-5.953-1.355-.163-2.785.025-3.176.417Zm63.15 2.042c.2.127-.513.164-1.583.083-1.071-.081-1.947-.724-1.947-1.43 0-1.011.338-1.028 1.584-.083.87.661 1.746 1.304 1.946 1.43Zm-213.705 1.337c0 1.375.227 1.938.504 1.25.278-.687.278-1.812 0-2.5-.277-.687-.504-.125-.504 1.25Zm77.842 2.358c0 1.27-.462.703-1.92-2.358-1.122-2.357-1.102-2.389.365-.559.855 1.068 1.555 2.38 1.555 2.917Zm55.472-.946c-1.687 4.038-1.948 10.176-.472 11.088.55.34 1.007 2.054 1.015 3.809.009 1.755.467 3.866 1.018 4.691.849 1.27 1.37 1.086 3.395-1.201 3.258-3.679 6.738-13.357 6.372-17.721-.295-3.514-.386-3.584-5.078-3.884-4.625-.296-4.824-.194-6.25 3.218Zm-78.21-.162c-.732 2.989-2.188 4.75-3.927 4.75-.966 0-.526-1.121 1.372-3.5 1.536-1.925 2.863-3.5 2.95-3.5.085 0-.092 1.012-.395 2.25Zm185.421.938c-.319.797-.556.56-.604-.605-.043-1.054.193-1.644.525-1.312.332.332.368 1.195.079 1.917Zm-209 1c-.319.797-.556.56-.604-.605-.043-1.054.193-1.644.525-1.312.332.332.368 1.195.08 1.917Zm168.805-.438a84.365 84.365 0 0 1-.411 2.059c-.043.17-.549.017-1.126-.339-.716-.443-.678-1.094.123-2.059 1.534-1.848 1.82-1.78 1.414.339Zm20.722 2.643c1.063 1.985 1.016 2.001-1.304.463-1.323-.877-2.57-2.427-2.771-3.444-.321-1.621-.16-1.678 1.304-.462.919.762 2.166 2.311 2.771 3.443Zm-146.688-.582c-.29.29.262 1.463 1.226 2.608 1.751 2.08 1.751 2.08-.504.17-1.24-1.05-2.032-2.134-1.759-2.408.274-.273-.06-1.213-.744-2.089-1.102-1.413-1.042-1.436.533-.199.976.765 1.537 1.629 1.248 1.918Zm118.6.864c-1.179 2.027-1.463 1.378-.498-1.136.342-.894.834-1.415 1.091-1.157.258.257-.009 1.289-.593 2.293Zm43.878.325c-.589 1.1-1.295 2-1.57 2-.275 0-.019-.9.57-2s1.295-2 1.57-2c.275 0 .019.9-.57 2Zm-194.784 7.5c.722 1.385.055 1.078-2.172-1-1.769-1.65-3.686-3.9-4.26-5-.722-1.385-.055-1.078 2.172 1 1.77 1.65 3.686 3.9 4.26 5Zm7.467-4.312c-.319.797-.556.56-.604-.605-.043-1.054.193-1.644.525-1.312.332.332.368 1.195.08 1.917Zm31.65.979c.264 1.008.367 1.833.228 1.833-.138 0-.998-.825-1.91-1.833-1.343-1.485-1.387-1.834-.228-1.834.787 0 1.647.825 1.91 1.834Zm112.917-.822c-.137.36-.406.542-.596.405-.191-.137-1.091.368-2 1.122-1.075.892-1.654.98-1.654.25 0-.617.477-1.122 1.059-1.122s.805-.41.495-.912c-.31-.502.226-.797 1.191-.655.965.142 1.642.552 1.505.912Zm43.872 1.33c-1.179 2.027-1.463 1.378-.498-1.136.342-.894.834-1.415 1.091-1.157.258.257-.009 1.289-.593 2.293Zm-15.439.513c-.319.797-.556.56-.604-.605-.043-1.054.193-1.644.525-1.312.332.332.368 1.195.079 1.917Zm12.317-1.843c0 .19-1.012 1.202-2.25 2.25l-2.25 1.905 1.905-2.25c1.79-2.114 2.595-2.705 2.595-1.905Zm-173 .968c0 .172-1.463 1.635-3.25 3.25l-3.25 2.937 2.937-3.25c2.738-3.029 3.563-3.71 3.563-2.937Zm-25.618 4.239c.341.89.173 1.291-.393.941-.544-.336-.989-1.034-.989-1.552 0-1.438.717-1.121 1.382.611Zm9 1c.341.89.173 1.291-.393.941-.544-.336-.989-1.034-.989-1.552 0-1.438.717-1.121 1.382.611Zm-25.9 9.954c7.362 12.143 10.315 15.896 15.52 19.725 7.32 5.386 23.641 7.131 34.072 3.642 5.451-1.823 5.737-2.927.322-1.242-6.122 1.905-20.782 1.303-27.654-1.136-6.37-2.26-12.356-8.304-20.13-20.321-8.665-13.397-10.128-13.855-2.13-.668Zm236.838-8.256c-1.115 1.238-4.163 5.625-6.772 9.75-5.604 8.861-11.695 15.472-16.548 17.959-7.737 3.967-20.464 5.104-29.854 2.669-5.61-1.455-5.874-.644-.386 1.187 8.718 2.909 23.329 2.193 30.698-1.505 5.44-2.731 11.6-9.616 17.276-19.31 3.06-5.225 6.241-10.287 7.069-11.25 2.222-2.58.889-2.131-1.483.5Zm-207.938.302c.341.89.173 1.291-.393.941-.544-.336-.989-1.034-.989-1.552 0-1.438.717-1.121 1.382.611Zm4.618-.174c0 .207-.685.946-1.523 1.641-1.273 1.057-1.42.995-.893-.378.538-1.401 2.416-2.384 2.416-1.263Zm168.416 1.263c.548 1.429.4 1.466-1.143.283a88.762 88.762 0 0 0-2.19-1.641c-.229-.156.286-.283 1.143-.283.858 0 1.843.739 2.19 1.641Zm3.584-1.033c0 .827-1.942 1.295-2.387.575-.289-.467.13-.85.931-.85s1.456.124 1.456.275Zm-184.872 3.142c1.243 1.586 1.208 1.621-.378.378-1.666-1.307-2.195-2.128-1.372-2.128.207 0 .995.787 1.75 1.75Zm44.666 2.894c-.291 1.375-.543 1.123-.969-.97-.373-1.825-.233-2.482.393-1.856.533.533.793 1.805.576 2.826Zm104.801-2.489c.443.715.275.883-.44.44-.74-.457-1.183.117-1.234 1.596-.043 1.27-.311 1.732-.594 1.026-.525-1.305.223-4.217 1.083-4.217.259 0 .793.52 1.185 1.155Zm43.405-.777c0 .207-.787.995-1.75 1.75-1.586 1.243-1.621 1.208-.378-.378 1.307-1.666 2.128-2.195 2.128-1.372Zm-170.5 2.622c-.34.55-1.154.993-1.809.985-.716-.01-.592-.403.31-.985 1.92-1.242 2.266-1.242 1.5 0Zm-18.372 2.75c1.243 1.586 1.208 1.621-.378.378-1.666-1.307-2.195-2.128-1.372-2.128.207 0 .995.787 1.75 1.75Zm27.622-1.034c-1.513.229-3.987.229-5.5 0s-.275-.416 2.75-.416 4.263.187 2.75.416Zm128.5-.054c-.687.278-1.812.278-2.5 0-.687-.277-.125-.504 1.25-.504s1.938.227 1.25.504Zm7 0c-.687.278-1.812.278-2.5 0-.687-.277-.125-.504 1.25-.504s1.938.227 1.25.504Zm-62.209 2.525c-4.081 4.38-.9 11.431 3.507 7.773 1.859-1.542 1.884-7.357.038-8.888-1.119-.929-1.858-.697-3.545 1.115Zm-62.041.813c-.589 1.1-1.295 2-1.57 2-.275 0-.019-.9.57-2s1.295-2 1.57-2c.275 0 .019.9-.57 2Zm142.503-.005c-.338.547-1.602 1.477-2.809 2.067-1.89.924-1.848.789.306-.973 2.8-2.29 3.406-2.555 2.503-1.094Zm-222.792 3.255c-6.212 5.882-8.197 11.03-8.195 21.25.001 7.747.376 9.765 2.698 14.5 1.483 3.025 4.822 7.525 7.42 10l4.721 4.5-3.706-4.463c-2.038-2.454-4.91-6.954-6.386-10-2.284-4.718-2.687-6.868-2.72-14.537-.035-7.902.292-9.628 2.676-14.152 1.493-2.833 4.192-6.316 5.998-7.739s2.753-2.592 2.104-2.598c-.648-.006-2.723 1.452-4.61 3.239Zm125.343-1.815c-.655.789-1.047 2.926-.872 4.75.293 3.054.619 3.34 4.138 3.63 3.708.305 6.68-1.046 6.68-3.036 0-1.384-5.956-6.779-7.483-6.779-.7 0-1.808.646-2.463 1.435Zm63.074.315c1.243 1.586 1.208 1.621-.378.378-1.666-1.307-2.195-2.128-1.372-2.128.207 0 .995.787 1.75 1.75Zm74.956.528c1.995 1.344 4.616 4.696 6.398 8.182 2.635 5.155 3.014 6.928 2.983 13.972-.04 9.254-2.627 16.156-9.125 24.35l-3.742 4.718 4.257-4c2.341-2.2 5.694-6.916 7.451-10.479 2.788-5.656 3.194-7.498 3.194-14.5 0-6.783-.437-8.911-2.834-13.792-2.569-5.231-8.229-10.729-11.046-10.729-.504 0 .605 1.025 2.464 2.278Zm-197.356 3.452c-2.075.216-5.225.213-7-.008-1.776-.221-.078-.398 3.772-.394 3.85.005 5.302.185 3.228.402Zm141.022-.002c-2.062.216-5.437.216-7.5 0-2.062-.215-.375-.392 3.75-.392s5.813.177 3.75.392ZM22.65 196.313c-2.37 1.8-3.782 6.272-3.082 9.77.965 4.823 1.961 4.284 1.961-1.061 0-3.799.54-5.495 2.367-7.44 2.457-2.615 1.632-3.455-1.246-1.269Zm261.393 1.711c1.56 2.11 2.169 4.312 2.118 7.667-.048 3.141.227 4.235.826 3.289 1.688-2.667 1.049-9.409-1.112-11.728-3.01-3.232-4.369-2.659-1.832.772ZM32.069 209.699c37.297 31.209 66.33 44.059 107.162 47.431 16.016 1.322 36.311.133 51.55-3.02 27.542-5.7 51.692-17.626 76.887-37.972 14.299-11.545 13.747-11.876-1.138-.682-37.651 28.315-70.261 39.657-113.827 39.587-42.415-.067-78.287-13.203-115.01-42.114-9.166-7.216-13.059-9.452-5.624-3.23Zm96.036 1.81c-6.603 5.966-11.792 17.92-9.157 21.095 1.763 2.124 7.696 1.787 11.089-.629 5.53-3.937 10.002-15.822 7.968-21.172-1.471-3.869-5.125-3.608-9.9.706Zm41.844-1.512c-2.4 4.484.504 14.446 5.848 20.064 3.24 3.406 4.421 4.002 7.927 4.002 7.368 0 7.701-5.559.973-16.247-5.493-8.727-12.324-12.349-14.748-7.819Zm33.571 59.762c-22.034 9.234-72.52 9.655-97.576.815-6.579-2.322-6.008-1.022.651 1.481 14.027 5.273 22.251 6.397 46.819 6.401 19.652.003 24.383-.301 32.5-2.088 10.26-2.26 19.461-5.43 22.56-7.774 2.496-1.888 2.123-1.8-4.954 1.165Zm-60.106 25.924c-33.958 5.168-56.023 7.369-74 7.383-12.536.009-12.893.067-10 1.622 10.914 5.867 21.607 10.723 27.298 12.396 7.4 2.175 14.752 4.153 16.952 4.561l5 .928c1.513.28 5.225.728 8.25.995 3.025.267 7.525.713 10 .991 2.475.278 8.525.736 13.445 1.018 5.278.302 9.845 1.101 11.14 1.95 1.207.791 4.423 1.733 7.146 2.095 4.639.615 4.945.519 4.86-1.524-.082-1.967.498-2.221 5.909-2.584 9.779-.656 26.791-2.318 29.75-2.905 1.512-.3 3.762-.73 5-.954 3.931-.712 18.171-4.603 20.25-5.533 1.1-.491 5.375-2.375 9.5-4.185 4.125-1.81 9.099-4.272 11.054-5.471 1.955-1.2 4.43-2.404 5.5-2.676 1.07-.272-4.354-.556-12.054-.632-15.805-.154-36.337-1.991-57-5.1-13.94-2.098-32.289-3.245-38-2.375Z" clip-rule="evenodd"/>
  <path fill="#023D20" fill-rule="evenodd" d="M184.696 53.813c-.185.412-.058 3 .283 5.75l.621 5 .157-5.75c.144-5.282-.202-6.916-1.061-5ZM58.664 75.725c.688.278 1.813.278 2.5 0 .688-.277.125-.504-1.25-.504s-1.937.227-1.25.504Zm136.329.92c.048 1.166.285 1.403.604.606.289-.723.253-1.586-.079-1.918-.332-.332-.568.258-.525 1.313Zm51.671-.92c.688.278 1.813.278 2.5 0 .688-.277.125-.504-1.25-.504s-1.937.227-1.25.504Zm43.329 50.921c.048 1.165.285 1.402.604.605.289-.722.253-1.585-.079-1.917-.332-.332-.568.258-.525 1.312Zm-231.579 5.77c-6.279 2.914-9.509 9.057-9.488 18.046.032 13.608 8.262 29.161 18.656 35.252 5.001 2.931 15.241 4.19 23.73 2.917 5.347-.802 10.602-5.335 10.602-9.145 0-2.856.039-2.846-3.636-.929-3.45 1.799-5.008 1.89-5.96.348-.492-.793-.038-.98 1.44-.593 1.186.31 2.156.129 2.156-.402s.45-.687 1-.347c.55.34 1 .115 1-.5s.45-.84 1-.5c.55.34 1.034.254 1.077-.191.042-.445.227-1.596.411-2.559.184-.963-.102-1.75-.636-1.75-.533 0-.716-.412-.405-.915.311-.503.195-1.065-.257-1.25-.453-.184-3.049-2.81-5.77-5.835-2.722-3.025-5.27-5.634-5.663-5.797-5.815-2.415-9.757-4.435-9.759-5-.004-1.572-17.634-2.298-21.998-.905-1.837.586-2.079.531-.913-.209 5.702-3.615 18.064-2.969 27.364 1.431 5.79 2.739 13.832 9.212 13.04 10.495-.288.466-.097 1.11.424 1.432 5.024 3.105-3.706-14.868-11.209-23.079-2.735-2.992-6.89-6.564-9.237-7.939-5.234-3.068-12.829-3.997-16.969-2.076Zm179.494-.47c-9.907 3.218-20.064 14.173-26.378 28.451-1.731 3.914-2.005 5.333-1.031 5.333.73 0 1.127-.323.884-.718-.743-1.201 7.732-8.384 12.769-10.822 4.258-2.061 4.893-2.138 6.272-.76 1.378 1.378 1.176 1.499-1.988 1.192-1.937-.188-3.522.086-3.522.609s-.403.701-.895.397c-.493-.305-1.164.147-1.493 1.004-.329.857-1.051 1.278-1.605.935-.554-.342-1.007-.15-1.007.428 0 .577-1.569 2.066-3.488 3.309-1.918 1.242-3.493 2.721-3.5 3.286-.006.565-1.337 2.478-2.956 4.25-1.619 1.773-2.631 3.23-2.25 3.238.382.009.059.418-.718.91-1.214.768-1.21 1.082.024 2.234.789.738 2.1 1.487 2.912 1.666.812.179 1.61.693 1.774 1.144.164.45 1.247.571 2.406.267 1.494-.39 1.889-.195 1.354.67-.563.911.097 1.062 2.594.595 1.841-.344 4.473-.14 5.848.454 2.025.874 1.168 1.01-4.508.713-3.906-.204-8.443-1.108-10.25-2.043-3.219-1.665-3.242-1.66-3.242.714 0 3.404 3.43 7.318 7.627 8.703 2.164.714 7.269 1.026 12.818.783 8.382-.366 9.691-.704 14.372-3.708 6.094-3.91 11.286-10.633 14.919-19.321 2.113-5.052 2.646-7.975 2.698-14.796.072-9.336-1.506-13.481-6.57-17.255-2.916-2.174-9.989-3.123-13.87-1.862Zm11.735 18.928c.676.43-1.594.601-5.045.382-3.451-.22-7.942.06-9.979.623-2.038.562-3.705.642-3.705.177 0-.466.787-1.052 1.75-1.304 3.014-.787 15.69-.696 16.979.122Zm-231.57 5.189c0 1.375.226 1.938.503 1.25.278-.687.278-1.812 0-2.5-.277-.687-.504-.125-.504 1.25Zm55.103 1.25c-.732 2.989-2.188 4.75-3.927 4.75-.966 0-.526-1.121 1.372-3.5 1.536-1.925 2.863-3.5 2.95-3.5.085 0-.092 1.012-.395 2.25Zm165.948 4.143c1.063 1.985 1.016 2.001-1.304.463-1.323-.877-2.57-2.427-2.771-3.444-.321-1.621-.16-1.678 1.304-.462.919.762 2.166 2.311 2.771 3.443Zm15.097 1.704c-4.631 7.939-24.446 19.316-27.649 15.875-.906-.974-.669-1.126 1.092-.702 1.238.299 2.25.087 2.25-.471 0-.557.675-.754 1.5-.437.825.316 1.5.091 1.5-.5 0-.592.565-.859 1.255-.594 1.769.679 4.128-1.909 2.466-2.706-.672-.321-.218-.399 1.007-.172 2.827.522 10.296-4.347 14.573-9.5 3.882-4.676 4.387-4.876 2.006-.793Zm-189.648 8.751c1.934 1.322 3.84 1.898 4.914 1.486 1.135-.436 1.518-.291 1.085.411-.407.658 1.2 1.743 4.086 2.759 2.616.92 5.438 2.021 6.27 2.446.833.425 2.93.565 4.66.311 1.73-.254 3.973.02 4.986.608 3.317 1.929-6.856 1.315-13.805-.833-9.444-2.919-20.329-10.252-23.06-15.536-.57-1.1.931-.157 3.335 2.095 2.403 2.252 5.792 5.066 7.53 6.253Zm3.024-6.66c-.319.797-.556.56-.604-.605-.043-1.054.193-1.644.525-1.312.332.332.368 1.195.08 1.917Zm173 2c-.319.797-.556.56-.604-.605-.043-1.054.193-1.644.525-1.312.332.332.368 1.195.079 1.917Zm-160.683-.875c0 .172-1.463 1.635-3.25 3.25l-3.25 2.937 2.937-3.25c2.738-3.029 3.563-3.71 3.563-2.937Zm-41.52 16.187c9.901 17.458 18.448 23.711 31.952 23.374l5.068-.127-6.57-.849c-12.378-1.6-18.758-6.034-27.172-18.887-5.874-8.973-7.153-10.342-3.278-3.511Zm226.6 4.993c-8.323 12.569-15.112 16.474-30.58 17.593l-10 .723 10.513-.171c9.302-.151 11.175-.495 16.269-2.988 6.15-3.008 11.077-8.13 15.961-16.588 4.068-7.046 2.97-6.32-2.163 1.431Zm22.056 1.007c5.274 6.003 6.344 9.293 6.355 19.531.008 8.631-.28 10.115-3.054 15.718-1.685 3.402-2.531 5.744-1.881 5.204.651-.54 2.392-3.675 3.87-6.966 5.135-11.444 2.99-26.636-4.749-33.619l-3.177-2.868 2.636 3Zm-269.893 3.25c-3.397 4.933-4.689 9.615-4.62 16.744.08 8.524 2.888 16.318 7.927 22.006l3.543 4-3.439-5c-4.72-6.865-6.654-13.227-6.654-21.894 0-6.061.491-8.297 2.845-12.965 3.145-6.235 3.256-7.042.398-2.891Zm4.314 6.473c-.856 1.222-1.504 4.034-1.439 6.25l.117 4.027.808-4.808c.444-2.644 1.346-5.456 2.005-6.25.658-.793.942-1.442.631-1.442-.31 0-1.266 1-2.122 2.223Zm263.572-.223c.683 1.375 1.556 4.075 1.941 6l.7 3.5.115-3.639c.075-2.368-.603-4.464-1.941-6l-2.057-2.361 1.242 2.5ZM77.676 205.77c1.244.239 3.044.23 4-.02s-.062-.446-2.262-.435c-2.2.011-2.982.216-1.738.455Zm52.924 3.899c-2.663 1.443-10.686 12.514-10.686 14.745 0 .572 1.271-.96 2.825-3.405 3.267-5.143 9.832-11.224 11.519-10.67 3.863 1.269.062 16.686-5.118 20.761-1.373 1.08-2.02 1.963-1.439 1.963 1.859 0 7.851-7.85 9.052-11.858 2.151-7.178 1.093-13.231-2.289-13.102-.578.022-2.316.727-3.864 1.566Zm40.514-.406c-1.792 1.792-1.408 9.754.69 14.3 1.015 2.2 3.143 5.125 4.728 6.5l2.882 2.5-2.125-2.5c-2.929-3.445-4.144-6.006-5.301-11.172-1.128-5.031-.479-8.828 1.508-8.828 1.931 0 7.968 5.535 10.494 9.623 1.184 1.915 2.401 3.234 2.704 2.93.971-.97-6.578-11.003-9.639-12.811-3.49-2.061-4.344-2.139-5.941-.542Zm-131.2 6.178c0 .207.788.995 1.75 1.75 1.586 1.243 1.621 1.208.378-.378-1.307-1.666-2.128-2.195-2.128-1.372Zm4.954 3.989c2.49 3.133 22.067 15.57 32.546 20.677 26.732 13.027 50.204 17.705 83.5 16.639 27.307-.874 48.785-6.11 70.5-17.187 9.78-4.989 26.917-15.743 28.076-17.62.322-.519-3.614 1.819-8.746 5.196-17.807 11.718-38.764 20.395-60.33 24.979-12.768 2.713-45.588 3.801-60.233 1.997-29.158-3.593-61.013-16.438-82.72-33.356-2.226-1.734-3.393-2.331-2.593-1.325Zm216.918.383c-1.243 1.586-1.208 1.621.378.378.962-.755 1.75-1.543 1.75-1.75 0-.823-.821-.294-2.128 1.372Zm-73.793 7.833c.048 1.165.285 1.402.604.605.289-.722.253-1.585-.079-1.917-.332-.332-.568.258-.525 1.312Zm-65.266 6.1c.721.289 1.584.253 1.916-.079.332-.332-.258-.568-1.312-.525-1.165.048-1.402.285-.604.604Zm-10 40c.721.289 1.584.253 1.916-.079.332-.332-.258-.568-1.312-.525-1.165.048-1.402.285-.604.604Zm81 0c.721.289 1.584.253 1.916-.079.332-.332-.258-.568-1.312-.525-1.165.048-1.402.285-.604.604Zm-77 1c.721.289 1.584.253 1.916-.079.332-.332-.258-.568-1.312-.525-1.165.048-1.402.285-.604.604Zm73 0c.721.289 1.584.253 1.916-.079.332-.332-.258-.568-1.312-.525-1.165.048-1.402.285-.604.604Zm-66.813 1.346c8.042 2.072 30.42 3.106 44.401 2.051 7.646-.577 14.021-1.168 14.167-1.314.147-.146-10.834-.266-24.401-.266s-27.592-.309-31.167-.686c-4.639-.49-5.498-.429-3 .215Zm61.269-.336c.973.254 2.323.237 3-.037.677-.274-.119-.481-1.769-.461-1.65.02-2.204.244-1.231.498Zm-40.769 19.927c-33.958 5.168-56.023 7.369-74 7.383-12.536.009-12.893.067-10 1.622 10.914 5.867 21.607 10.723 27.298 12.396 7.4 2.175 14.752 4.153 16.952 4.561l5 .928c1.513.28 5.225.728 8.25.995 3.025.267 7.525.713 10 .991 2.475.278 8.525.736 13.445 1.018 5.278.302 9.845 1.101 11.14 1.95 1.207.791 4.423 1.733 7.146 2.095 4.639.615 4.945.519 4.86-1.524-.082-1.967.498-2.221 5.909-2.584 9.779-.656 26.791-2.318 29.75-2.905 1.512-.3 3.762-.73 5-.954 3.931-.712 18.171-4.603 20.25-5.533 1.1-.491 5.375-2.375 9.5-4.185 4.125-1.81 9.099-4.272 11.054-5.471 1.955-1.2 4.43-2.404 5.5-2.676 1.07-.272-4.354-.556-12.054-.632-15.805-.154-36.337-1.991-57-5.1-13.94-2.098-32.289-3.245-38-2.375Z" clip-rule="evenodd"/>
  <path fill="#0F0" fill-rule="evenodd" d="M184.696 53.813c-.185.412-.058 3 .283 5.75l.621 5 .157-5.75c.144-5.282-.202-6.916-1.061-5ZM58.664 75.725c.688.278 1.813.278 2.5 0 .688-.277.125-.504-1.25-.504s-1.937.227-1.25.504Zm136.329.92c.048 1.166.285 1.403.604.606.289-.723.253-1.586-.079-1.918-.332-.332-.568.258-.525 1.313Zm51.671-.92c.688.278 1.813.278 2.5 0 .688-.277.125-.504-1.25-.504s-1.937.227-1.25.504Zm43.329 50.921c.048 1.165.285 1.402.604.605.289-.722.253-1.585-.079-1.917-.332-.332-.568.258-.525 1.312Zm-231.579 5.77c-6.279 2.914-9.509 9.057-9.488 18.046.032 13.608 8.262 29.161 18.656 35.252 5.001 2.931 15.241 4.19 23.73 2.917 5.347-.802 10.602-5.335 10.602-9.145 0-2.87.14-2.839-3.844-.851-5.436 2.712-13.136 2.933-20.802.599-9.86-3.003-20.759-10.252-23.56-15.671-.569-1.1.932-.157 3.336 2.095 2.403 2.252 5.815 5.082 7.581 6.29l3.211 2.196 3.79-1.934c4.632-2.365 7.131-5.024 8.26-8.79.701-2.339.872-2.463.942-.684.108 2.718-4.15 7.876-8.283 10.033l-3.13 1.634 4.5 2.06c5.978 2.737 18.965 2.904 23.76.305 3.23-1.751 3.245-1.793 1.692-4.795-2.345-4.536-8.39-10.888-13.399-14.078-5.495-3.5-5.872-3.506-5.388-.082.327 2.314.186 2.202-.889-.71-1.052-2.852-2.069-3.698-5.777-4.807-4.454-1.332-14.565-1.225-18.5.196-1.618.584-1.697.525-.413-.312 3.276-2.134 10.11-2.974 16.208-1.992 7.934 1.278 15.418 4.912 21.647 10.513 2.782 2.501 5.058 4.237 5.058 3.857 0-.379-1.873-4.289-4.16-8.688-4.748-9.124-12.14-17.726-18.37-21.378-5.235-3.068-12.83-3.997-16.97-2.076Zm179.494-.47c-5.015 1.629-8.597 4.07-13.631 9.29-5.804 6.018-9.238 11.219-12.925 19.577l-2.536 5.75 4.799-4.574c5.978-5.698 9.014-7.592 16.055-10.014 5.559-1.913 17.608-2.607 19.894-1.147.633.404-2.742.74-7.5.747-5.685.008-9.507.506-11.15 1.452-1.375.792-3.127 1.544-3.893 1.67-3.251.539-12.529 8.109-16.17 13.194-2.166 3.024-3.937 5.863-3.937 6.309 0 1.548 6.251 4.033 11.508 4.576 3.832.395 7.264-.056 12.495-1.645 6.708-2.038 7.082-2.296 5.354-3.704-1.021-.832-1.226-1.185-.455-.785.857.444 1.965-.012 2.853-1.176 1.38-1.809 1.418-1.788.758.419l-.694 2.323 3.279-1.696c1.803-.932 5.739-4.155 8.745-7.162 4.365-4.365 5.047-4.794 3.384-2.127-2.902 4.652-12.959 12.199-19.905 14.938-7.521 2.966-20.161 3.275-25.072.612l-3.25-1.761v2.39c0 3.404 3.43 7.318 7.627 8.703 2.164.714 7.269 1.026 12.818.783 8.382-.366 9.691-.704 14.372-3.708 6.094-3.91 11.286-10.633 14.919-19.321 2.113-5.052 2.646-7.975 2.698-14.796.072-9.336-1.506-13.481-6.57-17.255-2.916-2.174-9.989-3.123-13.87-1.862ZM18.072 156.063c0 1.375.227 1.938.504 1.25.278-.687.278-1.812 0-2.5-.277-.687-.504-.125-.504 1.25Zm57.592-.838c-1.975.722-2.75 1.693-2.75 3.446 0 1.684-.776 2.736-2.5 3.392-1.922.731-2.527 1.708-2.616 4.225-.065 1.843-.323 2.475-.589 1.446-.259-1.006-.217-2.806.094-4 .813-3.119 7.186-9.685 9.31-9.592 1.197.052.88.416-.949 1.083Zm160.368 2.72c2.135 2.136 3.846 4.498 3.803 5.25-.058 1.013-.21 1.044-.583.118-.278-.687-1.126-1.25-1.886-1.25-1.33 0-4.228-4.154-3.371-4.831.23-.182-.706-.954-2.081-1.715-1.375-.761-1.885-1.399-1.132-1.419.752-.019 3.114 1.712 5.25 3.847Zm-8.435.306c-.319.797-.556.56-.604-.605-.043-1.054.193-1.644.525-1.312.332.332.368 1.195.079 1.917Zm4.201 11.187c2.179 2.395 2.26 2.659.482 1.582-2.105-1.276-5.395-5.968-5.336-7.611.017-.465.527.054 1.134 1.154.607 1.1 2.281 3.294 3.72 4.875Zm8.799-2.187c-.319.797-.556.56-.604-.605-.043-1.054.193-1.644.525-1.312.332.332.368 1.195.079 1.917Zm-97.183 128.432c-33.958 5.168-56.023 7.369-74 7.383-12.536.009-12.893.067-10 1.622 10.914 5.867 21.607 10.723 27.298 12.396 7.4 2.175 14.752 4.153 16.952 4.561l5 .928c1.513.28 5.225.728 8.25.995 3.025.267 7.525.713 10 .991 2.475.278 8.525.736 13.445 1.018 5.278.302 9.845 1.101 11.14 1.95 1.207.791 4.423 1.733 7.146 2.095 4.639.615 4.945.519 4.86-1.524-.082-1.967.498-2.221 5.909-2.584 9.779-.656 26.791-2.318 29.75-2.905 1.512-.3 3.762-.73 5-.954 3.931-.712 18.171-4.603 20.25-5.533 1.1-.491 5.375-2.375 9.5-4.185 4.125-1.81 9.099-4.272 11.054-5.471 1.955-1.2 4.43-2.404 5.5-2.676 1.07-.272-4.354-.556-12.054-.632-15.805-.154-36.337-1.991-57-5.1-13.94-2.098-32.289-3.245-38-2.375Z" clip-rule="evenodd"/>
  <path fill="#6DE26D" fill-rule="evenodd" d="M58.664 75.725c.688.278 1.813.278 2.5 0 .688-.277.125-.504-1.25-.504s-1.937.227-1.25.504Zm136.329.92c.048 1.166.285 1.403.604.606.289-.722.253-1.585-.079-1.917-.332-.332-.568.258-.525 1.312Zm51.671-.92c.688.278 1.813.278 2.5 0 .688-.277.125-.504-1.25-.504s-1.937.227-1.25.504Zm-188.25 56.691c-6.279 2.914-9.509 9.057-9.488 18.046.032 13.608 8.262 29.161 18.656 35.252 5.001 2.931 15.241 4.19 23.73 2.917 5.347-.802 10.602-5.335 10.602-9.145 0-2.87.14-2.839-3.844-.851-5.436 2.712-13.136 2.933-20.802.599-9.86-3.003-20.759-10.252-23.56-15.671-.569-1.1.932-.157 3.336 2.095 2.403 2.252 5.815 5.082 7.581 6.29l3.211 2.196 3.79-1.934c4.632-2.365 7.131-5.024 8.26-8.79.701-2.339.872-2.463.942-.684.108 2.718-4.15 7.876-8.283 10.033l-3.13 1.634 4.5 2.06c5.978 2.737 18.965 2.904 23.76.305 3.23-1.751 3.245-1.793 1.692-4.795-2.345-4.536-8.39-10.888-13.399-14.078-5.495-3.5-5.872-3.506-5.388-.082.327 2.314.186 2.202-.889-.71-1.052-2.852-2.069-3.698-5.777-4.807-4.454-1.332-14.565-1.225-18.5.196-1.618.584-1.697.525-.413-.312 3.276-2.134 10.11-2.974 16.208-1.992 7.934 1.278 15.418 4.912 21.647 10.513 2.782 2.501 5.058 4.237 5.058 3.857 0-.379-1.873-4.289-4.16-8.688-4.748-9.124-12.14-17.726-18.37-21.378-5.235-3.068-12.83-3.997-16.97-2.076Zm179.494-.47c-5.015 1.629-8.597 4.07-13.631 9.29-5.804 6.018-9.238 11.219-12.925 19.577l-2.536 5.75 4.799-4.574c5.978-5.698 9.014-7.592 16.055-10.014 5.559-1.913 17.608-2.607 19.894-1.147.633.404-2.742.74-7.5.747-5.685.008-9.507.506-11.15 1.452-1.375.792-3.127 1.544-3.893 1.67-3.251.539-12.529 8.109-16.17 13.194-2.166 3.024-3.937 5.863-3.937 6.309 0 1.548 6.251 4.033 11.508 4.576 3.832.395 7.264-.056 12.495-1.645 6.708-2.038 7.082-2.296 5.354-3.704-1.021-.832-1.226-1.185-.455-.785.857.444 1.965-.012 2.853-1.176 1.38-1.809 1.418-1.788.758.419l-.694 2.323 3.279-1.696c1.803-.932 5.739-4.155 8.745-7.162 4.365-4.365 5.047-4.794 3.384-2.127-2.902 4.652-12.959 12.199-19.905 14.938-7.521 2.966-20.161 3.275-25.072.612l-3.25-1.761v2.39c0 3.404 3.43 7.318 7.627 8.703 2.164.714 7.269 1.026 12.818.783 8.382-.366 9.691-.704 14.372-3.708 6.094-3.91 11.286-10.633 14.919-19.321 2.113-5.052 2.646-7.975 2.698-14.796.072-9.336-1.506-13.481-6.57-17.255-2.916-2.174-9.989-3.123-13.87-1.862ZM18.072 156.063c0 1.375.227 1.938.504 1.25.278-.687.278-1.812 0-2.5-.277-.687-.504-.125-.504 1.25Zm57.592-.838c-1.975.722-2.75 1.693-2.75 3.446 0 1.684-.776 2.736-2.5 3.392-1.922.731-2.527 1.708-2.616 4.225-.065 1.843-.323 2.475-.589 1.446-.259-1.006-.217-2.806.094-4 .813-3.119 7.186-9.685 9.31-9.592 1.197.052.88.416-.949 1.083Zm160.368 2.72c2.135 2.136 3.846 4.498 3.803 5.25-.058 1.013-.21 1.044-.583.118-.278-.687-1.126-1.25-1.886-1.25-1.33 0-4.228-4.154-3.371-4.831.23-.182-.706-.954-2.081-1.715-1.375-.761-1.885-1.399-1.132-1.419.752-.019 3.114 1.712 5.25 3.847Zm-8.435.306c-.319.797-.556.56-.604-.605-.043-1.054.193-1.644.525-1.312.332.332.368 1.195.079 1.917Zm4.201 11.187c2.179 2.395 2.26 2.659.482 1.582-2.105-1.276-5.395-5.968-5.336-7.611.017-.465.527.054 1.134 1.154.607 1.1 2.281 3.294 3.72 4.875Zm8.799-2.187c-.319.797-.556.56-.604-.605-.043-1.054.193-1.644.525-1.312.332.332.368 1.195.079 1.917Zm-97.183 128.432c-6.412.975-38.312 5.284-44 5.943-3.3.382-14.1.974-24 1.316l-18 .621 8 4.155c21.057 10.936 38.556 15.279 69.948 17.36 9.128.605 14.633 1.484 18.313 2.925 7.095 2.778 9.921 2.724 9.818-.19-.076-2.177.312-2.272 11.921-2.929 27.2-1.538 46.361-6.447 67-17.166l8-4.155-10.5-.214c-16.011-.326-36.682-2.153-55.5-4.906-16.634-2.433-35.02-3.671-41-2.76Z" clip-rule="evenodd"/>
  <path fill="#FBED00" fill-rule="evenodd" d="M58.664 75.725c.688.278 1.813.278 2.5 0 .688-.277.125-.504-1.25-.504s-1.937.227-1.25.504Zm136.329.92c.048 1.166.285 1.403.604.606.289-.722.253-1.585-.079-1.917-.332-.332-.568.258-.525 1.312Zm51.671-.92c.688.278 1.813.278 2.5 0 .688-.277.125-.504-1.25-.504s-1.937.227-1.25.504Zm-190.4 76.787c-4.288 1.865-5.535 4.304-3.845 7.52 1.688 3.212 7.975 9.227 12.407 11.871 3.34 1.992 3.488 1.997 7 .204 6.683-3.411 9.518-8.694 7.91-14.737-.807-3.034-.998-3.141-3.836-2.152-2.208.77-2.986 1.673-2.986 3.468 0 1.651-.778 2.722-2.437 3.353-1.868.71-2.529 1.813-2.832 4.725-.379 3.646-.402 3.614-.563-.816-.195-5.359 2.325-9.348 7.203-11.399l3.04-1.278-3.955-1.099c-5.352-1.486-13.272-1.328-17.106.34Zm179.15-.712c-1.1.277-3.125.969-4.5 1.537s-2.992 1.139-3.593 1.268c-4.632.995-15.482 10.772-18.511 16.679l-1.907 3.722 2.988 1.545c6.098 3.154 15.543 2.955 24.56-.516l2.963-1.141-3.66-1.893c-5.295-2.739-7.843-6.426-7.825-11.323.009-2.263.485-4.79 1.059-5.615.765-1.1.881-.425.435 2.527-.688 4.546 1.732 9.118 6.819 12.881 2.823 2.089 2.831 2.089 4.353.092 1.485-1.946 1.507-1.936.815.375-.55 1.841-.405 2.196.647 1.58 9.692-5.681 17.542-14.307 15.867-17.436-2.134-3.987-12.83-6.22-20.51-4.282Zm-217.342 4.263c0 1.375.227 1.938.504 1.25.278-.687.278-1.812 0-2.5-.277-.687-.504-.125-.504 1.25Zm217.625-.439c3.042 2.13 5.233 6.668 5.138 10.639-.082 3.437-.334 3.166-1.353-1.45-.333-1.512-1.257-2.75-2.052-2.75-1.376 0-4.316-4.135-3.435-4.831.23-.182-.706-.954-2.081-1.715-2.244-1.241-2.292-1.387-.473-1.419 1.116-.019 3.031.667 4.256 1.526Zm-154.818 1.373c2.861 5.347-.54 13.078-7.03 15.984l-4.025 1.802 2.795 1.088c10.845 4.222 21.463 4.044 26.26-.44 1.284-1.2 1.235-1.773-.389-4.619-2.692-4.716-7.437-9.597-12.522-12.879-5.207-3.362-6.516-3.602-5.089-.936Zm64.848 168.749c.721.289 1.584.253 1.916-.079.332-.332-.258-.568-1.312-.525-1.165.048-1.402.285-.604.604Z" clip-rule="evenodd"/>
  <path fill="#000" fill-rule="evenodd" d="M58.664 75.725c.688.278 1.813.278 2.5 0 .688-.277.125-.504-1.25-.504s-1.937.227-1.25.504Zm136.329.92c.048 1.166.285 1.403.604.606.289-.722.253-1.585-.079-1.917-.332-.332-.568.258-.525 1.312Zm51.671-.92c.688.278 1.813.278 2.5 0 .688-.277.125-.504-1.25-.504s-1.937.227-1.25.504ZM18.072 156.063c0 1.375.227 1.938.504 1.25.278-.687.278-1.812 0-2.5-.277-.687-.504-.125-.504 1.25Zm57.592-.77c-1.993.679-2.75 1.608-2.75 3.378 0 1.684-.776 2.736-2.5 3.392-2.062.784-2.497 1.612-2.485 4.725.024 5.915 1.141 6.953 5.032 4.675 4.557-2.669 7.153-6.545 7.153-10.683 0-5.234-1.124-6.62-4.45-5.487Zm152.898-.469c-.257.415-.762 2.328-1.123 4.252-.746 3.98 1.869 8.745 6.803 12.395 2.79 2.064 2.847 2.066 4.25.151 2.346-3.202 1.581-9.559-1.15-9.559-1.484 0-3.698-3.396-2.8-4.295.307-.307-.808-1.264-2.478-2.128-1.67-.863-3.246-1.23-3.502-.816Zm-82.835 170.922c.721.289 1.584.253 1.916-.079.332-.332-.258-.568-1.312-.525-1.165.048-1.402.285-.604.604Z" clip-rule="evenodd"/>
</svg>
