<svg xmlns="http://www.w3.org/2000/svg" width="30" height="30" fill="none" viewBox="0 0 30 30">
  <path fill="#0071E3" d="M6.845 6.845a2.883 2.883 0 0 0 0 4.077l1.587 1.588a.758.758 0 0 1 .038-.04l4-4a.721.721 0 0 1 .04-.038l-1.588-1.587a2.883 2.883 0 0 0-4.077 0Zm6.723 2.645a.748.748 0 0 1-.038.04l-4 4a.746.746 0 0 1-.04.038l9.588 9.588a2.884 2.884 0 0 0 4.078-4.078L13.568 9.49ZM19.1 5.307a.483.483 0 0 1 .9 0l.43 1.095a.482.482 0 0 0 .272.274l1.091.432a.486.486 0 0 1 0 .903l-1.09.432a.485.485 0 0 0-.273.273L20 9.81a.483.483 0 0 1-.9 0l-.43-1.095a.485.485 0 0 0-.273-.273l-1.09-.432a.486.486 0 0 1 0-.903l1.09-.432a.485.485 0 0 0 .273-.274l.43-1.095Zm3.867 6.823a.483.483 0 0 1 .9 0l.156.399c.05.125.148.224.273.273l.398.158a.486.486 0 0 1 0 .902l-.398.158a.485.485 0 0 0-.273.273l-.156.4a.483.483 0 0 1-.9 0l-.157-.4a.485.485 0 0 0-.272-.273l-.398-.158a.486.486 0 0 1 0-.902l.398-.158a.485.485 0 0 0 .272-.273l.157-.4ZM8.133 18.307a.483.483 0 0 1 .9 0l.157.4a.48.48 0 0 0 .272.273l.398.157a.486.486 0 0 1 0 .903l-.398.158a.484.484 0 0 0-.272.273l-.157.4a.483.483 0 0 1-.9 0l-.157-.4a.484.484 0 0 0-.272-.273l-.398-.158a.486.486 0 0 1 0-.903l.398-.157a.484.484 0 0 0 .272-.274l.157-.399Z"/>
</svg>
